<svg xmlns="http://www.w3.org/2000/svg" viewBox="0 0 1815.34 861.22"><path d="M1244.71 428.04h-83.3c-4.61 0-8.33 3.73-8.33 8.33v41.65c0 4.6 3.72 8.33 8.33 8.33h83.3c4.61 0 8.33-3.73 8.33-8.33v-41.65c0-4.6-3.72-8.33-8.33-8.33zm-74.97 16.66h24.99v24.99h-24.99V444.7zm66.64 24.99h-24.99V444.7h24.99v24.99zm8.33 41.65h-83.3c-4.61 0-8.33 3.73-8.33 8.33v41.65c0 4.6 3.72 8.33 8.33 8.33h83.3c4.61 0 8.33-3.73 8.33-8.33v-41.65c0-4.6-3.72-8.33-8.33-8.33zM1169.74 528h24.99v24.99h-24.99V528zm66.64 24.99h-24.99V528h24.99v24.99zm8.33 41.66h-83.3c-4.61 0-8.33 3.73-8.33 8.33v41.65c0 4.6 3.72 8.33 8.33 8.33h83.3c4.61 0 8.33-3.73 8.33-8.33v-41.65c0-4.6-3.72-8.33-8.33-8.33zm-74.97 16.66h24.99v24.99h-24.99v-24.99zm66.64 24.99h-24.99v-24.99h24.99v24.99zm8.33 41.65h-83.3c-4.61 0-8.33 3.73-8.33 8.33v41.65c0 4.6 3.72 8.33 8.33 8.33h83.3c4.61 0 8.33-3.73 8.33-8.33v-41.65c0-4.6-3.72-8.33-8.33-8.33zm-74.97 16.66h24.99v24.99h-24.99v-24.99zm66.64 24.99h-24.99v-24.99h24.99v24.99zm8.33 41.65h-83.3c-4.61 0-8.33 3.73-8.33 8.33v41.65c0 4.6 3.72 8.33 8.33 8.33h83.3c4.61 0 8.33-3.73 8.33-8.33v-41.65c0-4.6-3.72-8.33-8.33-8.33zm-74.97 16.66h24.99v24.99h-24.99v-24.99zm66.64 24.99h-24.99v-24.99h24.99v24.99zm466.5-374.86h-83.3c-4.61 0-8.33 3.73-8.33 8.33v41.65c0 4.6 3.72 8.33 8.33 8.33h83.3c4.61 0 8.33-3.73 8.33-8.33v-41.65c0-4.6-3.72-8.33-8.33-8.33zm-74.97 16.66h24.99v24.99h-24.99V444.7zm66.64 24.99h-24.99V444.7h24.99v24.99zm-449.84-124.95h-83.3c-4.61 0-8.33 3.73-8.33 8.33v41.65c0 4.6 3.72 8.33 8.33 8.33h83.3c4.61 0 8.33-3.73 8.33-8.33v-41.65c0-4.6-3.72-8.33-8.33-8.33zm-74.97 16.66h24.99v24.99h-24.99V361.4zm66.64 24.99h-24.99V361.4h24.99v24.99zm466.5-41.65h-83.3c-4.61 0-8.33 3.73-8.33 8.33v41.65c0 4.6 3.72 8.33 8.33 8.33h83.3c4.61 0 8.33-3.73 8.33-8.33v-41.65c0-4.6-3.72-8.33-8.33-8.33zm-74.97 16.66h24.99v24.99h-24.99V361.4zm66.64 24.99h-24.99V361.4h24.99v24.99zm8.33 124.95h-83.3c-4.61 0-8.33 3.73-8.33 8.33v41.65c0 4.6 3.72 8.33 8.33 8.33h83.3c4.61 0 8.33-3.73 8.33-8.33v-41.65c0-4.6-3.72-8.33-8.33-8.33zM1627.91 528h24.99v24.99h-24.99V528zm66.64 24.99h-24.99V528h24.99v24.99zm8.33 41.66h-83.3c-4.61 0-8.33 3.73-8.33 8.33v41.65c0 4.6 3.72 8.33 8.33 8.33h83.3c4.61 0 8.33-3.73 8.33-8.33v-41.65c0-4.6-3.72-8.33-8.33-8.33zm-74.97 16.66h24.99v24.99h-24.99v-24.99zm66.64 24.99h-24.99v-24.99h24.99v24.99zm8.33 41.65h-83.3c-4.61 0-8.33 3.73-8.33 8.33v41.65c0 4.6 3.72 8.33 8.33 8.33h83.3c4.61 0 8.33-3.73 8.33-8.33v-41.65c0-4.6-3.72-8.33-8.33-8.33zm-74.97 16.66h24.99v24.99h-24.99v-24.99zm66.64 24.99h-24.99v-24.99h24.99v24.99zm8.33 41.65h-83.3c-4.61 0-8.33 3.73-8.33 8.33v41.65c0 4.6 3.72 8.33 8.33 8.33h83.3c4.61 0 8.33-3.73 8.33-8.33v-41.65c0-4.6-3.72-8.33-8.33-8.33zm-74.97 16.66h24.99v24.99h-24.99v-24.99zm66.64 24.99h-24.99v-24.99h24.99v24.99z" fill="#09a"/><g fill="#666"><path d="M1503.12 478.52c-3.25 3.25-3.25 8.5 0 11.83 1.67 1.58 3.75 2.42 5.91 2.42s4.26-.83 5.91-2.42c3.26-3.33 3.26-8.58 0-11.83-3.33-3.25-8.58-3.25-11.83 0zm29.49-5.83c3.26-3.33 3.26-8.58 0-11.83-3.25-3.25-8.57-3.25-11.83 0-3.25 3.25-3.25 8.5 0 11.83 1.67 1.58 3.75 2.42 5.91 2.42s4.24-.83 5.91-2.42zm-47.16 23.49c-3.25 3.25-3.25 8.58 0 11.83 1.67 1.58 3.75 2.42 5.91 2.42s4.26-.83 5.91-2.42c3.17-3.25 3.17-8.58 0-11.83-3.32-3.25-8.57-3.25-11.83 0zm52.99-41.23c1.67 1.67 3.83 2.5 5.91 2.5s4.25-.83 5.91-2.5c3.25-3.25 3.25-8.5 0-11.75s-8.58-3.25-11.83 0a8.299 8.299 0 000 11.75zm-11.34 41.23c-3.25 3.25-3.25 8.58 0 11.83 1.67 1.58 3.75 2.42 5.91 2.42s4.26-.83 5.83-2.42a8.253 8.253 0 000-11.83c-3.24-3.25-8.49-3.25-11.75 0zm17.67-17.66c-3.25 3.25-3.25 8.58 0 11.83 1.67 1.58 3.75 2.42 5.91 2.42s4.26-.83 5.91-2.42c3.26-3.25 3.26-8.58 0-11.83-3.25-3.25-8.58-3.25-11.83 0zm-12.5-70.8c-3.25 3.33-3.25 8.58 0 11.83 1.67 1.58 3.75 2.42 5.91 2.42s4.26-.83 5.83-2.42c3.25-3.25 3.25-8.5 0-11.83a8.299 8.299 0 00-11.75 0zm-11.75 31.9c2.08 0 4.26-.83 5.83-2.42a8.28 8.28 0 000-11.75 8.159 8.159 0 00-11.75 0 8.299 8.299 0 000 11.75c1.59 1.58 3.76 2.42 5.91 2.42zm-29.49 32.91a8.28 8.28 0 000-11.75c-3.25-3.25-8.5-3.25-11.74 0a8.28 8.28 0 000 11.75c1.57 1.67 3.74 2.5 5.82 2.5s4.26-.83 5.91-2.5zm11.75-15.25c2.17 0 4.34-.75 5.91-2.42a8.28 8.28 0 000-11.75c-3.25-3.25-8.5-3.25-11.74 0a8.28 8.28 0 000 11.75c1.58 1.67 3.74 2.42 5.82 2.42zm47.15-67.22c-3.25 3.25-3.25 8.58 0 11.83 1.67 1.58 3.75 2.42 5.91 2.42s4.25-.83 5.91-2.42c3.26-3.25 3.26-8.58 0-11.83-3.25-3.25-8.58-3.25-11.83 0zM1443.89 496.1c-3.26 3.25-3.26 8.5 0 11.83 1.66 1.58 3.74 2.42 5.91 2.42s4.25-.83 5.91-2.42c3.25-3.33 3.25-8.58 0-11.83-3.26-3.25-8.58-3.25-11.83 0zm17.66-17.66c-3.17 3.25-3.17 8.5 0 11.75 1.66 1.67 3.74 2.5 5.91 2.5s4.25-.83 5.91-2.5a8.299 8.299 0 000-11.75c-3.25-3.25-8.58-3.25-11.83 0zm-3.51-38.15c-3.25 3.25-3.25 8.58 0 11.83 1.67 1.58 3.75 2.42 5.91 2.42s4.26-.83 5.83-2.42c3.26-3.25 3.26-8.58 0-11.83-3.24-3.25-8.49-3.25-11.75 0zm70.73-70.64a8.299 8.299 0 000 11.75c1.58 1.67 3.75 2.5 5.83 2.5s4.33-.83 5.91-2.5a8.299 8.299 0 000-11.75 8.299 8.299 0 00-11.75 0zm17.66-17.66a8.299 8.299 0 000 11.75c1.58 1.67 3.75 2.42 5.83 2.42s4.33-.75 5.91-2.42a8.299 8.299 0 000-11.75c-3.25-3.25-8.51-3.25-11.75 0zm-64.81 84.88c2.08 0 4.26-.83 5.91-2.42 3.17-3.25 3.17-8.58 0-11.83-3.25-3.25-8.57-3.25-11.83 0-3.25 3.25-3.25 8.58 0 11.83 1.67 1.58 3.76 2.42 5.91 2.42zm17.67-17.66c2.17 0 4.25-.83 5.91-2.5a8.28 8.28 0 000-11.75c-3.25-3.25-8.57-3.25-11.83 0a8.299 8.299 0 000 11.75c1.67 1.67 3.75 2.5 5.91 2.5zm-47.16 50.57c3.26-3.25 3.26-8.5 0-11.83-3.25-3.25-8.5-3.25-11.74 0-3.26 3.33-3.26 8.58 0 11.83 1.57 1.58 3.74 2.42 5.91 2.42s4.25-.83 5.82-2.42zm-29.4 5.91a8.28 8.28 0 000 11.75c1.57 1.67 3.74 2.42 5.82 2.42s4.34-.75 5.92-2.42a8.299 8.299 0 000-11.75 8.159 8.159 0 00-11.75 0zm100.13-76.64a8.28 8.28 0 000-11.75c-3.25-3.25-8.58-3.25-11.83 0s-3.25 8.5 0 11.75c1.67 1.67 3.83 2.5 5.91 2.5s4.24-.83 5.91-2.5zm-117.79 94.3a8.28 8.28 0 000 11.75c1.57 1.67 3.75 2.42 5.83 2.42s4.33-.75 5.91-2.42a8.299 8.299 0 000-11.75 8.299 8.299 0 00-11.75 0zm101.3-143.03c-3.26 3.25-3.26 8.58 0 11.83 1.66 1.58 3.74 2.42 5.91 2.42s4.25-.83 5.91-2.42c3.25-3.25 3.25-8.58 0-11.83-3.26-3.25-8.58-3.25-11.83 0zm47.14-23.57a8.28 8.28 0 000-11.75c-3.25-3.25-8.5-3.25-11.83 0-3.17 3.25-3.17 8.5 0 11.75 1.67 1.67 3.83 2.5 5.91 2.5s4.34-.83 5.91-2.5zm-29.48 17.74c1.66 1.58 3.83 2.42 5.91 2.42s4.25-.83 5.91-2.42c3.25-3.33 3.25-8.58 0-11.83-3.26-3.25-8.58-3.25-11.83 0-3.17 3.25-3.17 8.5 0 11.83zm-145.78 133.95c-3.17 3.25-3.17 8.5 0 11.75 1.66 1.67 3.83 2.5 5.91 2.5s4.25-.83 5.91-2.5a8.299 8.299 0 000-11.75c-3.25-3.25-8.5-3.25-11.83 0zm29.48-17.66c-3.25-3.25-8.5-3.25-11.74 0a8.28 8.28 0 000 11.75c1.57 1.67 3.74 2.5 5.82 2.5s4.26-.83 5.91-2.5a8.28 8.28 0 000-11.75zm-47.14 35.32c-3.26 3.25-3.26 8.58 0 11.83 1.66 1.58 3.74 2.42 5.91 2.42s4.25-.83 5.91-2.42c3.25-3.25 3.25-8.58 0-11.83-3.26-3.25-8.58-3.25-11.83 0zm64.8-52.98c-3.25-3.25-8.5-3.25-11.74 0a8.28 8.28 0 000 11.75c1.57 1.67 3.74 2.42 5.82 2.42s4.34-.75 5.91-2.42a8.28 8.28 0 000-11.75zM1499.04 316a8.28 8.28 0 000 11.75c1.66 1.67 3.74 2.5 5.91 2.5s4.25-.83 5.91-2.5a8.299 8.299 0 000-11.75c-3.25-3.25-8.58-3.25-11.83 0zm-5.84 17.66c-3.26-3.25-8.58-3.25-11.83 0-3.26 3.25-3.26 8.5 0 11.83 1.66 1.58 3.74 2.42 5.91 2.42s4.25-.83 5.91-2.42c3.25-3.33 3.25-8.58 0-11.83zm58.89-70.64a8.299 8.299 0 000 11.75c1.58 1.67 3.75 2.42 5.83 2.42s4.34-.75 5.91-2.42a8.28 8.28 0 000-11.75c-3.24-3.25-8.49-3.25-11.75 0zm-35.4 35.32a8.299 8.299 0 000 11.75c1.67 1.67 3.75 2.5 5.91 2.5s4.26-.83 5.91-2.5a8.28 8.28 0 000-11.75c-3.24-3.25-8.57-3.25-11.83 0zm64.82-41.24a8.299 8.299 0 000-11.75 8.159 8.159 0 00-11.75 0 8.299 8.299 0 000 11.75c1.58 1.58 3.75 2.42 5.91 2.42s4.25-.83 5.83-2.42zm-41.25 37.82c2.17 0 4.34-.83 5.91-2.5a8.28 8.28 0 000-11.75c-3.25-3.25-8.5-3.25-11.74 0a8.28 8.28 0 000 11.75 8.044 8.044 0 005.82 2.5zM1322.43 492.6c-3.26 3.25-3.26 8.58 0 11.83 1.57 1.58 3.75 2.42 5.91 2.42s4.25-.83 5.83-2.42c3.25-3.25 3.25-8.58 0-11.83a8.299 8.299 0 00-11.75 0zm64.8-41.23a8.28 8.28 0 000-11.75c-3.25-3.25-8.57-3.25-11.83 0a8.299 8.299 0 000 11.75c1.67 1.67 3.75 2.5 5.91 2.5s4.26-.83 5.91-2.5zm-17.65 17.74c3.25-3.25 3.25-8.58 0-11.83-3.26-3.25-8.58-3.25-11.84 0-3.25 3.25-3.25 8.58 0 11.83 1.67 1.58 3.75 2.42 5.92 2.42s4.25-.83 5.91-2.42zm-29.49 5.83c-3.26 3.25-3.26 8.58 0 11.83 1.66 1.58 3.74 2.42 5.91 2.42s4.25-.83 5.91-2.42c3.25-3.25 3.25-8.58 0-11.83-3.33-3.25-8.58-3.25-11.83 0zm64.8-41.23a8.28 8.28 0 000-11.75c-3.25-3.25-8.5-3.25-11.83 0-3.17 3.25-3.17 8.5 0 11.75 1.67 1.67 3.83 2.5 5.91 2.5s4.26-.83 5.91-2.5zm118.71-163.86c2.17 0 4.34-.75 5.91-2.42a8.28 8.28 0 000-11.75c-3.25-3.25-8.5-3.25-11.74 0a8.28 8.28 0 000 11.75c1.58 1.67 3.74 2.42 5.82 2.42zm-23.48 3.5a8.28 8.28 0 000 11.75c1.57 1.67 3.74 2.5 5.82 2.5s4.26-.83 5.91-2.5a8.28 8.28 0 000-11.75c-3.24-3.25-8.57-3.25-11.74 0zm-23.58 35.32c-3.26-3.25-8.58-3.25-11.83 0-3.26 3.25-3.26 8.58 0 11.83 1.66 1.58 3.74 2.42 5.91 2.42s4.25-.83 5.91-2.42c3.25-3.25 3.25-8.58 0-11.83zm5.83-17.66a8.28 8.28 0 000 11.75c1.66 1.67 3.83 2.5 5.91 2.5s4.25-.83 5.91-2.5a8.299 8.299 0 000-11.75c-3.25-3.25-8.5-3.25-11.83 0zm-180.76 180.77c-3.26 3.25-3.26 8.58 0 11.83 1.57 1.58 3.75 2.42 5.91 2.42s4.25-.83 5.83-2.42c3.25-3.25 3.25-8.58 0-11.83a8.299 8.299 0 00-11.75 0zm76.55-56.4c2.17 0 4.26-.83 5.91-2.5a8.28 8.28 0 000-11.75c-3.25-3.25-8.5-3.25-11.83 0-3.17 3.25-3.17 8.5 0 11.75 1.67 1.67 3.83 2.5 5.91 2.5zm-47.06 50.56c3.25-3.25 3.25-8.58 0-11.83-3.33-3.25-8.58-3.25-11.83 0-3.26 3.25-3.26 8.58 0 11.83 1.66 1.58 3.74 2.42 5.91 2.42s4.25-.83 5.91-2.42zm17.66-17.66c3.25-3.33 3.25-8.58 0-11.83-3.26-3.25-8.58-3.25-11.84 0-3.25 3.25-3.25 8.5 0 11.83 1.67 1.58 3.75 2.42 5.92 2.42s4.25-.83 5.91-2.42zm17.65-17.66c3.26-3.33 3.26-8.58 0-11.83-3.25-3.25-8.57-3.25-11.83 0-3.25 3.25-3.25 8.5 0 11.83 1.67 1.58 3.83 2.42 5.91 2.42 2.17 0 4.26-.83 5.91-2.42zm37.41-144.36c-3.25 3.33-3.25 8.58 0 11.83 1.67 1.67 3.75 2.42 5.91 2.42s4.25-.75 5.91-2.42c3.17-3.25 3.17-8.5 0-11.83-3.33-3.17-8.58-3.17-11.83 0zm41.23-21.08c2.17 0 4.25-.83 5.91-2.42 3.25-3.33 3.25-8.58 0-11.83s-8.58-3.25-11.83 0-3.25 8.5 0 11.83c1.67 1.58 3.75 2.42 5.91 2.42zm-88.39 88.31c2.17 0 4.34-.75 5.91-2.42a8.28 8.28 0 000-11.75c-3.25-3.25-8.5-3.25-11.83 0-3.17 3.25-3.17 8.5 0 11.75 1.67 1.67 3.83 2.42 5.91 2.42zm-52.97 53.06c2.17 0 4.25-.83 5.91-2.42 3.25-3.25 3.25-8.58 0-11.83-3.26-3.25-8.58-3.25-11.83 0-3.26 3.25-3.26 8.58 0 11.83 1.66 1.58 3.74 2.42 5.91 2.42zm94.22-90.8c3.26-3.25 3.26-8.5 0-11.83a8.299 8.299 0 00-11.75 0c-3.25 3.33-3.25 8.58 0 11.83 1.58 1.58 3.75 2.42 5.91 2.42 2.07 0 4.25-.83 5.83-2.42zM1339 371.23c2.17 0 4.26-.83 5.92-2.42 3.25-3.33 3.25-8.58 0-11.83-3.26-3.25-8.51-3.25-11.84 0-3.17 3.25-3.17 8.5 0 11.83 1.67 1.58 3.83 2.42 5.91 2.42zm-23.56 3.41a8.28 8.28 0 000 11.75c1.66 1.67 3.74 2.5 5.91 2.5s4.25-.83 5.91-2.5a8.299 8.299 0 000-11.75c-3.25-3.25-8.58-3.25-11.83 0zm106.04-94.21c1.67 1.58 3.75 2.42 5.91 2.42s4.25-.83 5.91-2.42c3.26-3.25 3.26-8.58 0-11.83-3.25-3.25-8.58-3.25-11.83 0s-3.25 8.58 0 11.83zm-47.15 55.48c2.17 0 4.34-.83 5.91-2.5a8.28 8.28 0 000-11.75c-3.25-3.25-8.5-3.25-11.75 0s-3.25 8.5 0 11.75a8.065 8.065 0 005.83 2.5zm-16.08-25.58c2.17 0 4.25-.83 5.91-2.42 3.25-3.25 3.25-8.58 0-11.83s-8.58-3.25-11.83 0-3.25 8.58 0 11.83c1.67 1.58 3.75 2.42 5.91 2.42zm11.75-20.07c1.67 1.58 3.75 2.42 5.91 2.42s4.25-.83 5.91-2.42c3.25-3.33 3.25-8.58 0-11.83-3.26-3.25-8.58-3.25-11.83 0-3.26 3.25-3.26 8.5 0 11.83zm41.23-32.91c2.17 0 4.33-.83 5.91-2.5a8.299 8.299 0 000-11.75c-3.26-3.25-8.51-3.25-11.75 0a8.28 8.28 0 000 11.75c1.57 1.67 3.75 2.5 5.83 2.5zm-17.66 17.66c2.17 0 4.33-.83 5.91-2.5a8.299 8.299 0 000-11.75c-3.26-3.25-8.51-3.25-11.83 0a8.28 8.28 0 000 11.75c1.66 1.67 3.83 2.5 5.91 2.5zm-88.3 88.31c2.08 0 4.26-.75 5.83-2.42a8.299 8.299 0 000-11.75 8.299 8.299 0 00-11.75 0 8.299 8.299 0 000 11.75c1.58 1.67 3.75 2.42 5.91 2.42zm23.49-31.83c-3.25-3.25-8.51-3.25-11.75 0a8.299 8.299 0 000 11.75c1.67 1.58 3.75 2.42 5.91 2.42s4.25-.83 5.83-2.42a8.317 8.317 0 000-11.75zm11.83-3.5c2.08 0 4.25-.83 5.91-2.42 3.17-3.25 3.17-8.58 0-11.83-3.33-3.25-8.58-3.25-11.83 0s-3.25 8.58 0 11.83c1.67 1.58 3.75 2.42 5.91 2.42zm4.42-46.15c2.17 0 4.33-.75 5.91-2.42a8.299 8.299 0 000-11.75c-3.26-3.25-8.51-3.25-11.75 0a8.299 8.299 0 000 11.75c1.58 1.67 3.75 2.42 5.83 2.42zM1315.6 303c-3.25-3.25-8.5-3.25-11.83 0a8.299 8.299 0 000 11.75c1.67 1.67 3.83 2.5 5.91 2.5s4.25-.83 5.91-2.5a8.317 8.317 0 000-11.75zm47.15-38.82c2.08 0 4.25-.75 5.83-2.42a8.299 8.299 0 000-11.75c-3.26-3.25-8.51-3.25-11.75 0a8.28 8.28 0 000 11.75c1.57 1.67 3.75 2.42 5.91 2.42zm-41.23 21.16a8.159 8.159 0 000 11.75c1.58 1.67 3.75 2.5 5.83 2.5s4.33-.83 5.91-2.5a8.299 8.299 0 000-11.75c-3.25-3.25-8.51-3.25-11.75 0zm-13.33-4.74c3.25-3.25 3.25-8.58 0-11.83-3.26-3.25-8.58-3.25-11.83 0-3.26 3.25-3.26 8.58 0 11.83 1.66 1.58 3.74 2.42 5.91 2.42s4.25-.83 5.91-2.42zm-29.49 5.83c-3.26 3.33-3.26 8.58 0 11.83 1.57 1.58 3.75 2.42 5.91 2.42s4.25-.83 5.83-2.42c3.32-3.25 3.32-8.5 0-11.83a8.299 8.299 0 00-11.75 0zm41.23-21.08c2.17 0 4.25-.83 5.91-2.42 3.25-3.33 3.25-8.58 0-11.83-3.26-3.25-8.58-3.25-11.84 0-3.25 3.25-3.25 8.5 0 11.83 1.67 1.58 3.76 2.42 5.92 2.42zm-36.73-4.91c2.17 0 4.25-.83 5.91-2.5 3.25-3.17 3.25-8.5 0-11.75-3.26-3.25-8.58-3.25-11.83 0-3.26 3.25-3.26 8.58 0 11.75 1.66 1.67 3.74 2.5 5.91 2.5zm162.44 45.81c2.17 0 4.25-.83 5.91-2.42 3.25-3.33 3.25-8.58 0-11.83-3.26-3.25-8.58-3.25-11.83 0-3.26 3.25-3.26 8.5 0 11.83 1.66 1.58 3.83 2.42 5.91 2.42zm52.97-52.98c2.17 0 4.34-.83 5.91-2.5a8.28 8.28 0 000-11.75c-3.25-3.25-8.5-3.25-11.74 0a8.28 8.28 0 000 11.75 8.044 8.044 0 005.82 2.5zm-17.66 17.66c2.17 0 4.34-.83 5.91-2.5a8.28 8.28 0 000-11.75c-3.25-3.25-8.5-3.25-11.74 0a8.28 8.28 0 000 11.75 8.044 8.044 0 005.82 2.5zm-17.65 17.66c2.17 0 4.25-.83 5.91-2.5a8.299 8.299 0 000-11.75c-3.26-3.25-8.51-3.25-11.83 0-3.17 3.25-3.17 8.5 0 11.75 1.66 1.67 3.83 2.5 5.91 2.5zm-158.03 158.03c2.08 0 4.26-.83 5.83-2.42a8.299 8.299 0 000-11.75 8.159 8.159 0 00-11.75 0 8.299 8.299 0 000 11.75c1.58 1.58 3.75 2.42 5.91 2.42zm35.32-35.32c2.17 0 4.25-.83 5.91-2.42 3.25-3.25 3.25-8.58 0-11.83s-8.58-3.25-11.83 0-3.25 8.58 0 11.83c1.67 1.58 3.75 2.42 5.91 2.42zm17.66-17.66c2.17 0 4.25-.83 5.91-2.5 3.25-3.17 3.25-8.5 0-11.75s-8.58-3.25-11.83 0-3.25 8.58 0 11.75c1.67 1.67 3.75 2.5 5.91 2.5zm-35.32 35.32c2.08 0 4.25-.83 5.83-2.42 3.25-3.25 3.25-8.58 0-11.83s-8.51-3.25-11.75 0-3.25 8.58 0 11.83c1.58 1.58 3.75 2.42 5.91 2.42z"/><path d="M1807.01 844.56h-54.15V311.42c0-4.6-3.72-8.33-8.33-8.33h-74.97V186.47c0-4.6-3.72-8.33-8.33-8.33h-458.17c-4.61 0-8.33 3.73-8.33 8.33v116.62h-74.97c-4.61 0-8.33 3.73-8.33 8.33v533.14h-54.15c-4.61 0-8.33 3.73-8.33 8.33s3.72 8.33 8.33 8.33h749.73c4.61 0 8.33-3.73 8.33-8.33s-3.72-8.33-8.33-8.33zm-595.62-649.77h441.51v24.99h-441.51v-24.99zm441.51 41.65v66.64h-45.82v-66.64h45.82zm-441.51 0h45.82v66.64h-45.82v-66.64zm66.64 608.11h-149.95v-524.8h149.95v524.81zm62.48 0h-45.82v-24.99h45.82v24.99zm0-41.65h-45.82v-24.99h45.82v24.99zm0-41.65h-45.82v-24.99h45.82v24.99zm0-41.65h-45.82v-24.99h45.82v24.99zm83.3 41.65h-12.5c-4.61 0-8.33 3.73-8.33 8.33s3.72 8.33 8.33 8.33h12.5v66.64h-66.64V694.6h66.64v66.64zm83.3 83.3h-66.64v-66.64h12.5c4.61 0 8.33-3.73 8.33-8.33s-3.72-8.33-8.33-8.33h-12.5v-66.64h66.64v149.95zm62.48 0h-45.82v-24.99h45.82v24.99zm0-41.65h-45.82v-24.99h45.82v24.99zm0-41.65h-45.82v-24.99h45.82v24.99zm0-41.65h-45.82v-24.99h45.82v24.99zm0-41.65h-274.9v-24.99h274.9v24.99zm0-41.65h-274.9v-24.99h274.9v24.99zm0-41.65h-274.9v-24.99h274.9v24.99zm0-41.65h-274.9v-24.99h274.9V553zm3.73-248.34c.47-2.58-.16-5.31-2.16-7.31-3.25-3.25-8.5-3.25-11.74 0a8.28 8.28 0 000 11.75c1.57 1.67 3.74 2.42 5.82 2.42 1.67 0 3.24-.6 4.64-1.56-.1.49-.3.95-.3 1.47v20.48c-1.99.09-3.97.86-5.5 2.43a8.299 8.299 0 000 11.75c1.48 1.56 3.48 2.25 5.5 2.34v22.66c-.7.37-1.42.73-2 1.32-3.25 3.25-3.25 8.58 0 11.83.6.57 1.31.92 2 1.3v42.53c-.41-.9-.92-1.77-1.67-2.51a8.299 8.299 0 00-11.75 0 8.299 8.299 0 000 11.75c1.58 1.67 3.75 2.42 5.83 2.42s4.25-.75 5.91-2.42c.74-.74 1.26-1.61 1.67-2.51v23.89c-2.55-.38-5.21.25-7.16 2.2a8.299 8.299 0 000 11.75c1.67 1.67 3.75 2.5 5.91 2.5.43 0 .83-.18 1.25-.25v36.48h-170.21c-.09-.1-.12-.23-.22-.33-3.26-3.25-8.51-3.25-11.83 0-.1.1-.12.23-.22.33h-69.93c-.24-.32-.37-.7-.67-1-3.26-3.33-8.51-3.33-11.75 0-.29.3-.42.67-.67 1h-9.41v-9.4c.32-.24.71-.37 1-.67a8.299 8.299 0 000-11.75c-.29-.3-.67-.43-1-.68v-28.86a8.056 8.056 0 000-7.98v-75.32a8.056 8.056 0 000-7.98v-34.31c1.17-.4 2.28-.98 3.25-1.9 3.26-3.25 3.26-8.58 0-11.83-.93-.94-2.06-1.52-3.25-1.92v-7.31c0-4.6-3.72-8.33-8.33-8.33h-12.5v-66.64h19.03c.36 1.39.94 2.74 2.04 3.83 1.66 1.67 3.83 2.5 5.91 2.5s4.25-.83 5.91-2.5c1.09-1.09 1.68-2.43 2.03-3.83h21c-1.1 2.97-.51 6.43 1.87 8.75 1.67 1.67 3.75 2.5 5.91 2.5s4.26-.83 5.91-2.5c2.37-2.32 2.97-5.77 1.88-8.75h27.02c-.58 2.69.02 5.58 2.1 7.66 1.57 1.58 3.75 2.42 5.91 2.42s4.25-.83 5.83-2.42c2.08-2.08 2.67-4.97 2.09-7.66h34.23c.18.24.27.52.5.75 1.57 1.67 3.74 2.42 5.82 2.42s4.34-.75 5.91-2.42c.22-.22.31-.51.5-.75h19.59c-1.01 2.92-.42 6.27 1.91 8.66 1.67 1.58 3.83 2.42 5.91 2.42s4.25-.83 5.91-2.42c2.32-2.39 2.92-5.75 1.91-8.66h67.28c-.86.4-1.67.87-2.38 1.58a8.299 8.299 0 000 11.75c1.58 1.67 3.75 2.42 5.83 2.42s4.34-.75 5.91-2.42a8.28 8.28 0 000-11.75c-.7-.7-1.53-1.18-2.37-1.58h40.74c.4 1.09.99 2.12 1.87 3 .89.85 1.92 1.44 3 1.85v40.77c-.4-.85-.87-1.67-1.58-2.38a8.159 8.159 0 00-11.75 0 8.299 8.299 0 000 11.75c1.58 1.58 3.75 2.42 5.91 2.42s4.26-.83 5.83-2.42c.71-.7 1.19-1.53 1.58-2.38v14.04h-12.5c-1.76 0-3.28.66-4.61 1.57zm162.87 539.9h-149.95V319.75h149.95v524.81z"/></g><path d="M1452.97 448.87h-41.65c-4.61 0-8.33-3.73-8.33-8.33v-33.32h-33.32c-4.61 0-8.33-3.73-8.33-8.33v-41.65c0-4.6 3.72-8.33 8.33-8.33h33.32v-33.32c0-4.6 3.72-8.33 8.33-8.33h41.65c4.61 0 8.33 3.73 8.33 8.33v33.32h33.32c4.61 0 8.33 3.73 8.33 8.33v41.65c0 4.6-3.72 8.33-8.33 8.33h-33.32v33.32c0 4.6-3.72 8.33-8.33 8.33zm-33.32-16.66h24.99v-33.32c0-4.6 3.72-8.33 8.33-8.33h33.32v-24.99h-33.32c-4.61 0-8.33-3.73-8.33-8.33v-33.32h-24.99v33.32c0 4.6-3.72 8.33-8.33 8.33H1378v24.99h33.32c4.61 0 8.33 3.73 8.33 8.33v33.32z" fill="#f36"/><path d="M737.24 529.76l-67.01-95.35a9.683 9.683 0 00-7.91-4.11H541.44c-2.57 0-5.03 1.02-6.84 2.83a9.69 9.69 0 00-2.83 6.84l.02 96.69c0 5.35 4.33 9.67 9.67 9.67h189c5.35 0 9.67-4.32 9.67-9.67 0-2.7-1.1-5.13-2.89-6.89zm-124.09-2.77l36.66-36.67a9.657 9.657 0 000-13.67 9.657 9.657 0 00-13.67 0l-49.02 49.03c-.39.39-.57.88-.87 1.31h-35.13l-.02-77.35h68.53l-32.52 32.53a9.657 9.657 0 000 13.67c1.89 1.89 4.36 2.83 6.84 2.83s4.95-.95 6.84-2.83l46.19-46.2h10.31l54.37 77.35h-98.51z" fill="#09a"/><path d="M146.65 546.32h-32.24c-5.35 0-9.67-4.32-9.67-9.67v-22.56H82.18c-5.35 0-9.67-4.32-9.67-9.67v-32.24c0-5.35 4.32-9.67 9.67-9.67h22.56v-22.56c0-5.35 4.32-9.67 9.67-9.67h32.24c5.35 0 9.67 4.32 9.67 9.67v22.56h22.56c5.35 0 9.67 4.32 9.67 9.67v32.24c0 5.35-4.32 9.67-9.67 9.67h-22.56v22.56c0 5.35-4.32 9.67-9.67 9.67zm-22.57-19.34h12.9v-22.56c0-5.35 4.32-9.67 9.67-9.67h22.56v-12.9h-22.56c-5.35 0-9.67-4.32-9.67-9.67v-22.56h-12.9v22.56c0 5.35-4.32 9.67-9.67 9.67H91.85v12.9h22.56c5.35 0 9.67 4.32 9.67 9.67v22.56z" fill="#f36"/><g fill="#666"><path d="M444.76 841.22h-48.34c-5.35 0-9.67 4.32-9.67 9.67s4.32 9.67 9.67 9.67h48.34c5.35 0 9.67-4.32 9.67-9.67s-4.32-9.67-9.67-9.67zm-410.92 0H9.67c-5.35 0-9.67 4.32-9.67 9.67s4.32 9.67 9.67 9.67h24.17c5.35 0 9.67-4.32 9.67-9.67s-4.32-9.67-9.67-9.67zm386.75-246.55h24.17c5.35 0 9.67-4.32 9.67-9.67s-4.32-9.67-9.67-9.67h-24.17c-5.35 0-9.67 4.32-9.67 9.67s4.32 9.67 9.67 9.67zm120.86 0h24.17c5.35 0 9.67-4.32 9.67-9.67s-4.32-9.67-9.67-9.67h-24.17c-5.35 0-9.67 4.32-9.67 9.67s4.32 9.67 9.67 9.67zM154.7 744.53c-18.66 0-33.84 15.18-33.84 33.84s15.18 33.84 33.84 33.84 33.84-15.18 33.84-33.84-15.18-33.84-33.84-33.84zm0 48.34c-8 0-14.5-6.51-14.5-14.5s6.51-14.5 14.5-14.5 14.5 6.51 14.5 14.5-6.51 14.5-14.5 14.5zM29.78 696.19c-3.78 3.77-3.78 9.96 0 13.73 1.93 1.83 4.35 2.8 6.86 2.8s4.93-.98 6.77-2.8c3.77-3.77 3.77-9.96 0-13.73a9.609 9.609 0 00-13.63 0zm20.5-20.5c-3.78 3.77-3.78 9.96 0 13.73 1.92 1.84 4.34 2.8 6.86 2.8s4.93-.97 6.76-2.8a9.57 9.57 0 000-13.73c-3.67-3.77-9.85-3.77-13.62 0zm20.49-20.5c-3.77 3.77-3.77 9.96 0 13.73 1.93 1.84 4.35 2.8 6.87 2.8s4.93-.97 6.86-2.8c3.77-3.77 3.77-9.96 0-13.73-3.77-3.77-9.96-3.77-13.74 0zm48.34 0c-3.77 3.77-3.77 9.96 0 13.73 1.93 1.84 4.35 2.8 6.87 2.8s4.93-.97 6.86-2.8c3.77-3.77 3.77-9.96 0-13.73-3.77-3.77-9.96-3.77-13.74 0zm55.7-7.34c-3.78 3.77-3.78 9.96 0 13.73 1.93 1.83 4.35 2.8 6.86 2.8s4.93-.98 6.86-2.8c3.77-3.77 3.77-9.96 0-13.73-3.87-3.78-9.96-3.78-13.73 0zm38.68 9.67c-3.78 3.77-3.78 9.96 0 13.73 1.93 1.83 4.35 2.8 6.86 2.8s4.93-.98 6.77-2.8c3.77-3.77 3.77-9.96 0-13.73a9.609 9.609 0 00-13.63 0zm112.74 11.4c3.77-3.77 3.77-9.96 0-13.73-3.78-3.77-9.96-3.77-13.74 0-3.77 3.77-3.77 9.96 0 13.73 1.93 1.84 4.35 2.8 6.87 2.8s4.93-.97 6.86-2.8zM292 675.69c-3.78 3.77-3.78 9.96 0 13.73 1.92 1.84 4.34 2.8 6.86 2.8s4.93-.97 6.86-2.8c3.77-3.77 3.77-9.96 0-13.73-3.78-3.77-9.96-3.77-13.73 0zm-20.5 20.5c-3.78 3.77-3.78 9.96 0 13.73 1.93 1.83 4.35 2.8 6.86 2.8s4.93-.98 6.86-2.8c3.77-3.77 3.77-9.96 0-13.73-3.87-3.78-9.96-3.78-13.73 0zm103.07-27.27c3.77-3.77 3.77-9.96 0-13.73-3.78-3.77-9.96-3.77-13.74 0-3.77 3.77-3.77 9.96 0 13.73 1.93 1.84 4.35 2.8 6.87 2.8s4.93-.97 6.86-2.8zm-54.73 27.27c-3.78 3.77-3.78 9.96 0 13.73 1.83 1.83 4.35 2.8 6.86 2.8s4.93-.98 6.77-2.8c3.77-3.77 3.77-9.96 0-13.73a9.609 9.609 0 00-13.63 0zm20.5-20.5c-3.78 3.77-3.78 9.96 0 13.73 1.92 1.84 4.34 2.8 6.86 2.8s4.93-.97 6.86-2.8c3.77-3.77 3.77-9.96 0-13.73-3.78-3.77-9.96-3.77-13.73 0zm82.57-6.77c3.77-3.77 3.77-9.96 0-13.73-3.78-3.77-9.96-3.77-13.74 0-3.77 3.77-3.77 9.96 0 13.73 1.93 1.84 4.35 2.8 6.87 2.8s4.93-.97 6.86-2.8zm-54.72 27.27c-3.78 3.77-3.78 9.96 0 13.73 1.93 1.83 4.35 2.8 6.86 2.8s4.93-.98 6.86-2.8c3.67-3.77 3.67-9.96 0-13.73-3.87-3.78-9.96-3.78-13.73 0zm20.5-20.5c-3.78 3.77-3.78 9.96 0 13.73 1.92 1.84 4.34 2.8 6.86 2.8s4.93-.97 6.86-2.8c3.77-3.77 3.77-9.96 0-13.73-3.87-3.77-9.96-3.77-13.73 0zm82.57-6.77c3.77-3.77 3.77-9.96 0-13.73-3.78-3.77-9.96-3.77-13.74 0-3.77 3.77-3.77 9.96 0 13.73 1.93 1.84 4.35 2.8 6.87 2.8s4.93-.97 6.86-2.8zm-34.23 6.77c-3.78 3.77-3.78 9.96 0 13.73 1.92 1.84 4.34 2.8 6.86 2.8s4.93-.97 6.86-2.8c3.77-3.77 3.77-9.96 0-13.73-3.78-3.77-9.96-3.77-13.73 0zm-20.5 20.5c-3.78 3.77-3.78 9.96 0 13.73 1.83 1.83 4.35 2.8 6.86 2.8s4.93-.98 6.77-2.8a9.587 9.587 0 000-13.73 9.609 9.609 0 00-13.63 0zm103.07-27.27c3.77-3.77 3.77-9.96 0-13.73-3.78-3.77-9.96-3.77-13.74 0-3.77 3.77-3.77 9.96 0 13.73 1.93 1.84 4.35 2.8 6.87 2.8s4.93-.97 6.86-2.8zm-54.72 27.27c-3.78 3.77-3.78 9.96 0 13.73 1.83 1.83 4.35 2.8 6.86 2.8s4.93-.98 6.86-2.8c3.67-3.77 3.67-9.96 0-13.73-3.87-3.78-9.96-3.78-13.73 0zm103.07-27.27c3.77-3.77 3.77-9.96 0-13.73-3.78-3.77-9.96-3.77-13.74 0-3.77 3.77-3.77 9.96 0 13.73 1.93 1.84 4.35 2.8 6.87 2.8s4.93-.97 6.86-2.8zm-34.23 6.77c-3.78 3.77-3.78 9.96 0 13.73 1.92 1.84 4.34 2.8 6.86 2.8s4.93-.97 6.86-2.8c3.77-3.77 3.77-9.96 0-13.73-3.78-3.77-9.96-3.77-13.73 0zm-20.5 20.5c-3.78 3.77-3.78 9.96 0 13.73 1.83 1.83 4.35 2.8 6.86 2.8s4.93-.98 6.77-2.8a9.587 9.587 0 000-13.73 9.609 9.609 0 00-13.63 0zm48.34 0c-3.78 3.77-3.78 9.96 0 13.73 1.83 1.83 4.35 2.8 6.86 2.8s4.93-.98 6.77-2.8c3.77-3.77 3.77-9.96 0-13.73a9.609 9.609 0 00-13.63 0zm20.5-20.5c-3.78 3.77-3.78 9.96 0 13.73 1.92 1.84 4.34 2.8 6.86 2.8s4.93-.97 6.86-2.8c3.77-3.77 3.77-9.96 0-13.73-3.78-3.77-9.96-3.77-13.73 0zm34.23-6.77c3.77-3.77 3.77-9.96 0-13.73-3.78-3.77-9.96-3.77-13.74 0-3.77 3.77-3.77 9.96 0 13.73 1.93 1.84 4.35 2.8 6.87 2.8s4.93-.97 6.86-2.8zm14.12 6.77c-3.78 3.77-3.78 9.96 0 13.73 1.92 1.84 4.34 2.8 6.86 2.8s4.93-.97 6.86-2.8c3.77-3.77 3.77-9.96 0-13.73-3.78-3.77-9.96-3.77-13.73 0zm27.36-3.96c2.51 0 4.93-.97 6.86-2.8 3.77-3.77 3.77-9.96 0-13.73-3.78-3.77-9.96-3.77-13.74 0-3.77 3.77-3.77 9.96 0 13.73 1.94 1.84 4.36 2.8 6.87 2.8zm-47.86 24.46c-3.78 3.77-3.78 9.96 0 13.73 1.83 1.83 4.35 2.8 6.86 2.8s4.93-.98 6.86-2.8c3.77-3.77 3.77-9.96 0-13.73-3.87-3.78-9.96-3.78-13.73 0zm96.2-24.46c2.51 0 4.93-.97 6.86-2.8 3.77-3.77 3.77-9.96 0-13.73-3.78-3.77-9.96-3.77-13.74 0-3.77 3.77-3.77 9.96 0 13.73 1.94 1.84 4.36 2.8 6.87 2.8zm55.69-7.35c2.42 0 4.93-.98 6.77-2.8 3.77-3.77 3.77-9.96 0-13.73-3.78-3.78-9.87-3.78-13.63 0-3.78 3.77-3.78 9.96 0 13.73 1.84 1.83 4.35 2.8 6.86 2.8zm-724.77 3.58c3.77-3.78 3.77-9.87 0-13.63-3.78-3.77-9.96-3.77-13.73 0a9.609 9.609 0 000 13.63c1.92 1.93 4.34 2.9 6.86 2.9 2.51 0 4.93-.97 6.86-2.9zm697.8 76.57c-18.66 0-33.84 15.18-33.84 33.84s15.18 33.84 33.84 33.84 33.84-15.18 33.84-33.84-15.18-33.84-33.84-33.84zm0 48.34c-8 0-14.5-6.51-14.5-14.5s6.51-14.5 14.5-14.5 14.5 6.51 14.5 14.5-6.51 14.5-14.5 14.5zM28.14 359.43c-3.78 3.77-3.78 9.86 0 13.73 1.92 1.84 4.34 2.8 6.86 2.8s4.93-.97 6.86-2.8c3.77-3.87 3.77-9.96 0-13.73-3.78-3.77-9.96-3.77-13.73 0zm48.34 0c-3.78 3.77-3.78 9.86 0 13.73 1.92 1.84 4.34 2.8 6.86 2.8s4.93-.97 6.86-2.8c3.77-3.87 3.77-9.96 0-13.73-3.78-3.77-9.86-3.77-13.73 0zm48.34 0c-3.78 3.77-3.78 9.86 0 13.73 1.92 1.84 4.34 2.8 6.86 2.8s4.93-.97 6.86-2.8c3.77-3.87 3.77-9.96 0-13.73-3.78-3.77-9.96-3.77-13.73 0zm48.35 0c-3.78 3.77-3.78 9.86 0 13.73 1.92 1.84 4.34 2.8 6.86 2.8s4.93-.97 6.86-2.8c3.77-3.87 3.77-9.96 0-13.73-3.78-3.77-9.96-3.77-13.73 0zm48.34 0c-3.78 3.77-3.78 9.86 0 13.73 1.92 1.84 4.34 2.8 6.86 2.8s4.93-.97 6.86-2.8c3.77-3.87 3.77-9.96 0-13.73-3.78-3.77-9.96-3.77-13.73 0zm48.35 0c-3.78 3.77-3.78 9.86 0 13.73 1.92 1.84 4.34 2.8 6.86 2.8s4.93-.97 6.86-2.8c3.77-3.87 3.77-9.96 0-13.73-3.78-3.77-9.96-3.77-13.73 0zm48.34 0c-3.78 3.77-3.78 9.86 0 13.73 1.92 1.84 4.34 2.8 6.86 2.8s4.93-.97 6.86-2.8c3.77-3.87 3.77-9.96 0-13.73-3.78-3.77-9.96-3.77-13.73 0zm48.34 0c-3.78 3.77-3.78 9.86 0 13.73 1.92 1.84 4.34 2.8 6.86 2.8s4.93-.97 6.86-2.8c3.77-3.87 3.77-9.96 0-13.73-3.78-3.77-9.96-3.77-13.73 0zm48.35 0c-3.78 3.77-3.78 9.86 0 13.73 1.92 1.84 4.34 2.8 6.86 2.8s4.93-.97 6.86-2.8c3.77-3.87 3.77-9.96 0-13.73-3.78-3.77-9.96-3.77-13.73 0zm48.34 0c-3.78 3.77-3.78 9.86 0 13.73 1.92 1.84 4.34 2.8 6.86 2.8s4.93-.97 6.86-2.8c3.77-3.87 3.77-9.96 0-13.73-3.78-3.77-9.96-3.77-13.73 0zm55.21 16.53c2.51 0 4.93-.97 6.86-2.8 3.77-3.87 3.77-9.96 0-13.73-3.78-3.77-9.96-3.77-13.73 0-3.78 3.77-3.78 9.86 0 13.73 1.92 1.84 4.34 2.8 6.86 2.8zm48.34 0c2.51 0 4.93-.97 6.86-2.8 3.77-3.87 3.77-9.96 0-13.73-3.78-3.77-9.96-3.77-13.73 0-3.78 3.77-3.78 9.86 0 13.73 1.92 1.84 4.34 2.8 6.86 2.8zm48.35 0c2.51 0 4.93-.97 6.86-2.8 3.77-3.87 3.77-9.96 0-13.73-3.78-3.77-9.96-3.77-13.73 0-3.78 3.77-3.78 9.86 0 13.73 1.92 1.84 4.34 2.8 6.86 2.8z"/><path d="M834.24 553.72l-44.34-24.39-93.91-140.86c-1.65-30.51-26.93-54.85-57.85-54.85H9.67c-5.35 0-9.67 4.32-9.67 9.67v386.74c0 31.99 26.02 58.01 58.01 58.01h15.12c2.5 21.25 13.13 40.06 28.72 53.18H82.18c-5.35 0-9.67 4.32-9.67 9.67s4.32 9.67 9.67 9.67h72.52c42.04 0 76.75-31.75 81.57-72.52h417.01c2.5 21.25 13.13 40.06 28.72 53.18H493.12c-5.35 0-9.67 4.32-9.67 9.67s4.32 9.67 9.67 9.67h241.72c42.04 0 76.75-31.75 81.57-72.52h15.12c31.99 0 58.01-26.02 58.01-58.01V611.6c0-31.08-24.57-56.44-55.29-57.87zM681.31 401.29l92.19 138.29v84.09H502.77V401.29H681.3zM48.9 767.51c-13.79-3.36-24.62-14.1-28.18-27.81h35.02c-3.44 8.78-5.84 18.07-6.84 27.81zm167.79 20.75c-.47 3.01-1.08 5.95-1.97 8.79-4.67-1.83-9.95.02-12.26 4.63-2.2 4.59-.39 9.95 3.83 12.48-1.72 2.48-3.65 4.81-5.69 7.01-3.38-3.68-8.99-4.23-12.93-1.12-3.94 3.21-4.72 8.71-1.92 12.91a62.933 62.933 0 01-8.16 3.89c-1.47-4.67-6.24-7.65-11.19-6.55-4.95 1.1-8.03 5.77-7.37 10.7-1.42.1-2.86.22-4.32.22-1.59 0-3.15-.13-4.71-.23.74-4.94-2.33-9.7-7.28-10.79-4.95-1.09-9.7 1.78-11.26 6.52-2.8-1.12-5.5-2.45-8.09-3.94 2.71-4.13 2.03-9.71-1.91-12.91v.1c-3.93-3.2-9.51-2.65-12.9.93-2.05-2.21-3.96-4.54-5.68-7.04 4.27-2.55 6.08-7.88 3.88-12.45a9.42 9.42 0 00-12.13-4.64c-.88-2.86-1.49-5.84-1.95-8.86 4.92-.44 8.87-4.48 8.87-9.5v-.68c.09-5.04-3.84-9.07-8.76-9.5.49-3.01 1.13-5.95 2.04-8.8 1.14.45 2.33.71 3.53.71 3.58 0 6.96-1.92 8.69-5.32 2.2-4.58.49-9.93-3.71-12.46 1.74-2.48 3.66-4.81 5.74-7.01 1.89 1.99 4.35 3.23 6.97 3.23 2.03 0 4.16-.68 5.89-2.13 4.02-3.11 4.81-8.67 2.04-12.79 2.61-1.47 5.34-2.73 8.15-3.83 1.27 4.08 4.99 6.85 9.15 6.85.68 0 1.36-.1 2.03-.19 4.95-1.1 8.04-5.86 7.45-10.72 1.32-.09 2.62-.2 3.96-.2 1.72 0 3.41.13 5.1.25-.74 4.93 2.23 9.67 7.17 10.86.77.11 1.45.2 2.22.2 4.08 0 7.73-2.69 9.05-6.68 2.81 1.13 5.49 2.48 8.08 4-2.8 4.13-2.12 9.72 1.82 12.83 1.83 1.45 3.96 2.22 6.09 2.22 2.53 0 4.99-1.16 6.87-3.06 2.02 2.21 3.94 4.53 5.63 7.03-4.29 2.54-6.1 7.88-3.99 12.37v.1c1.64 3.48 5.12 5.51 8.8 5.51 1.11 0 2.27-.26 3.36-.71.85 2.85 1.45 5.8 1.9 8.79-4.99.36-8.92 4.38-8.92 9.41-.1 5.05 3.86 9.11 8.81 9.59zm19.58-19.55c-4.81-40.76-39.53-72.52-81.57-72.52s-76.75 31.75-81.57 72.52h-4.89c4.83-43.44 41.73-77.35 86.45-77.35s81.61 33.91 86.45 77.35h-4.87zm5.45-90.68a9.495 9.495 0 000 11.39v28c-1.75-2.48-3.56-4.91-5.49-7.22 3.02-3.8 2.91-9.24-.6-12.84-3.53-3.53-9.02-3.63-12.8-.56-4.31-3.6-8.96-6.8-13.81-9.69.73-3.15.06-6.58-2.4-9.09-3.78-3.78-9.87-3.78-13.63 0-.29.3-.42.68-.66 1.01-7-2.66-14.32-4.58-21.93-5.71-.37-1.81-1.06-3.55-2.46-4.97-3.78-3.78-9.87-3.78-13.63 0-1.08 1.11-1.78 2.43-2.23 3.81-13.2.32-25.82 3.03-37.41 7.75-.44-1.54-1.11-3.02-2.31-4.22-3.78-3.77-9.96-3.77-13.73 0-3.51 3.5-3.62 9.04-.6 12.84-2.98 1.88-5.84 3.9-8.61 6.06-3.69-1.91-8.24-1.47-11.29 1.6-2.9 2.89-3.53 7.18-1.98 10.73-2.47 2.71-4.78 5.53-6.96 8.48-3.69-2.13-8.4-1.78-11.55 1.38-1.04 1.04-1.74 2.27-2.2 3.58h-30.3c-.47-1.31-1.15-2.53-2.2-3.58-1.04-1.03-2.27-1.72-3.58-2.19v-71.58h22.15c.41 1.61 1.07 3.17 2.31 4.45 1.92 1.93 4.45 2.9 6.86 2.9s4.93-.97 6.86-2.9c1.27-1.28 1.94-2.83 2.36-4.45h28.83c.31 1.95 1.03 3.87 2.54 5.41 1.93 1.84 4.45 2.8 6.86 2.8s4.94-.97 6.86-2.8c1.5-1.54 2.23-3.45 2.55-5.41h29.53c.31 1.95 1.03 3.87 2.54 5.41 1.93 1.84 4.45 2.8 6.86 2.8s4.94-.97 6.86-2.8c1.5-1.54 2.23-3.45 2.55-5.41h42.39c1.24.55 2.54.87 3.9.87s2.65-.32 3.89-.87h25.25c-.25 2.77.55 5.63 2.66 7.74 1.92 1.84 4.34 2.8 6.86 2.8.29 0 .58-.15.87-.17v24.65zm0-54.35H19.34V401.3h222.38v222.38zm241.72 145.03H261.06V739.7h222.38v29.01zm0-90.09a9.763 9.763 0 000 7.89v33.86h-23.22c-.47-1.31-1.15-2.53-2.2-3.58-3.78-3.77-9.87-3.77-13.63 0-1.04 1.04-1.74 2.27-2.2 3.58h-30.31c-.47-1.31-1.15-2.53-2.2-3.58-3.78-3.77-9.87-3.77-13.63 0-1.04 1.04-1.74 2.27-2.2 3.58h-30.31c-.47-1.31-1.15-2.53-2.2-3.58-3.78-3.77-9.87-3.77-13.63 0-1.04 1.04-1.74 2.27-2.2 3.58H315.2c-.47-1.31-1.15-2.53-2.2-3.58-3.78-3.77-9.87-3.77-13.63 0-1.04 1.04-1.74 2.27-2.2 3.58h-30.31c-.47-1.31-1.15-2.53-2.2-3.58-1.04-1.03-2.27-1.73-3.58-2.19v-47.46c.47 1.05 1.07 2.08 1.93 2.96 1.92 1.84 4.34 2.8 6.86 2.8s4.93-.97 6.86-2.8c3.77-3.87 3.77-9.96 0-13.73-3.78-3.77-9.96-3.77-13.73 0-.86.86-1.46 1.86-1.93 2.91v-16.25h19.66c.07 2.39.97 4.76 2.77 6.57 1.93 1.84 4.35 2.8 6.87 2.8s4.93-.97 6.86-2.8c1.82-1.82 2.7-4.19 2.77-6.57h30.46c.31 1.95 1.03 3.87 2.54 5.41 1.93 1.84 4.45 2.8 6.86 2.8s4.94-.97 6.86-2.8c1.5-1.54 2.23-3.45 2.55-5.41h29.53c.31 1.95 1.03 3.87 2.54 5.41 1.93 1.84 4.45 2.8 6.86 2.8s4.94-.97 6.86-2.8c1.5-1.54 2.23-3.45 2.55-5.41h29.53c.31 1.95 1.03 3.87 2.54 5.41 1.93 1.84 4.45 2.8 6.86 2.8s4.94-.97 6.86-2.8c1.5-1.54 2.23-3.45 2.55-5.41h29.53c.31 1.95 1.03 3.87 2.54 5.41 1.55 1.47 3.44 2.21 5.42 2.52v27.66zm0-54.94H261.06V401.3h222.38v222.38zm7.64-243.75c-.6.6-.94 1.33-1.35 2.03H457.8c-.41-.7-.74-1.43-1.34-2.03-3.78-3.78-9.96-3.78-13.73 0-.6.6-.94 1.33-1.35 2.03h-31.93c-.41-.7-.74-1.43-1.34-2.03-3.78-3.78-9.96-3.78-13.73 0-.6.6-.94 1.33-1.35 2.03H361.1c-.41-.7-.74-1.43-1.34-2.03-3.78-3.78-9.96-3.78-13.73 0-.6.6-.94 1.33-1.35 2.03h-31.93c-.41-.7-.74-1.43-1.34-2.03-3.78-3.78-9.96-3.78-13.73 0-.6.6-.94 1.33-1.35 2.03H264.4c-.41-.7-.74-1.43-1.34-2.03-3.78-3.78-9.96-3.78-13.73 0-.6.6-.94 1.33-1.35 2.03h-31.93c-.41-.7-.74-1.43-1.34-2.03-3.78-3.78-9.96-3.78-13.73 0-.6.6-.94 1.33-1.35 2.03H167.7c-.41-.7-.74-1.43-1.34-2.03-3.78-3.78-9.96-3.78-13.73 0-.6.6-.94 1.33-1.35 2.03h-31.93c-.41-.7-.74-1.43-1.34-2.03-3.78-3.78-9.96-3.78-13.73 0-.6.6-.94 1.33-1.35 2.03H71c-.41-.7-.74-1.43-1.34-2.03-3.78-3.78-9.96-3.78-13.73 0-.6.6-.94 1.33-1.35 2.03H22.75c-.41-.7-.74-1.43-1.34-2.03s-1.33-.94-2.03-1.34v-25.63h29.88c1.85 1.61 4.09 2.51 6.28 2.51s4.46-.91 6.28-2.51h35.76c1.85 1.61 4.09 2.51 6.28 2.51s4.46-.91 6.28-2.51h35.76c1.83 1.61 3.99 2.51 6.28 2.51s4.46-.91 6.28-2.51h35.76c1.85 1.61 4.09 2.51 6.28 2.51s4.46-.91 6.28-2.51h35.76c1.85 1.61 4.09 2.51 6.28 2.51s4.46-.91 6.28-2.51h35.76c1.85 1.61 4.09 2.51 6.28 2.51s4.46-.91 6.28-2.51h35.76c1.83 1.61 3.99 2.51 6.28 2.51s4.46-.91 6.28-2.51h35.76c1.85 1.61 4.09 2.51 6.28 2.51s4.46-.91 6.28-2.51h35.76c1.85 1.61 4.09 2.51 6.28 2.51s4.46-.91 6.28-2.51h35.76c1.85 1.61 4.09 2.51 6.28 2.51s4.46-.91 6.28-2.51h35.76c1.83 1.61 3.99 2.51 6.28 2.51s4.46-.91 6.28-2.51h35.76c1.85 1.61 4.09 2.51 6.28 2.51s4.46-.91 6.28-2.51h35.76c1.85 1.61 4.09 2.51 6.28 2.51s4.06-.83 5.8-2.19c5.99.52 11.58 2.34 16.49 5.29-.43.3-.92.47-1.31.86-3.78 3.77-3.78 9.86 0 13.73 1.92 1.84 4.34 2.8 6.86 2.8s4.93-.97 6.86-2.8c.38-.39.56-.88.86-1.31 1.87 3.11 3.31 6.51 4.24 10.11h-24.27c-.41-.7-.74-1.43-1.34-2.03-3.78-3.78-9.96-3.78-13.73 0-.6.6-.94 1.33-1.35 2.03h-31.93c-.41-.7-.74-1.43-1.34-2.03-3.78-3.78-9.96-3.78-13.73 0-.6.6-.94 1.33-1.35 2.03h-31.93c-.41-.7-.74-1.43-1.34-2.03-3.78-3.78-9.96-3.78-13.73 0-.6.6-.94 1.33-1.35 2.03h-31.93c-.41-.7-.74-1.43-1.34-2.03-3.63-3.78-9.8-3.78-13.58 0zm137.89 388.78H502.78V739.7h133.08c-3.58 9.14-5.98 18.85-6.89 29.01zm8.79-51.92c-1.04 1.04-1.74 2.27-2.2 3.58h-30.31c-.47-1.31-1.15-2.53-2.2-3.58-3.78-3.77-9.87-3.77-13.63 0-1.04 1.04-1.74 2.27-2.2 3.58h-30.31c-.47-1.31-1.15-2.53-2.2-3.58-3.78-3.77-9.87-3.77-13.63 0-1.04 1.04-1.74 2.27-2.2 3.58h-30.31c-.47-1.31-1.15-2.53-2.2-3.58-1.04-1.03-2.27-1.73-3.58-2.19v-71.58h21.05c.31 1.95 1.03 3.87 2.54 5.41 1.93 1.84 4.45 2.8 6.86 2.8s4.94-.97 6.86-2.8c1.5-1.54 2.23-3.45 2.55-5.41h29.53c.31 1.95 1.03 3.87 2.54 5.41 1.93 1.84 4.35 2.8 6.86 2.8s4.94-.97 6.86-2.8c1.5-1.54 2.23-3.45 2.55-5.41h29.53c.31 1.95 1.03 3.87 2.54 5.41 1.93 1.84 4.45 2.8 6.86 2.8s4.94-.97 6.86-2.8c1.5-1.54 2.23-3.45 2.55-5.41h29.53c.31 1.95 1.03 3.87 2.54 5.41 1.93 1.84 4.35 2.8 6.86 2.8s4.94-.97 6.86-2.8c1.5-1.54 2.23-3.45 2.55-5.41h29.53c.31 1.95 1.03 3.87 2.54 5.41 1.93 1.84 4.45 2.8 6.86 2.8s4.94-.97 6.86-2.8c1.5-1.54 2.23-3.45 2.55-5.41h37.47v36.39c-7.31-2.86-15-4.9-22.97-6.09-.37-1.81-1.06-3.55-2.46-4.97-3.78-3.78-9.87-3.78-13.63 0-1.08 1.11-1.78 2.43-2.23 3.81-13.2.32-25.82 3.03-37.41 7.75-.44-1.54-1.11-3.02-2.31-4.22-3.78-3.77-9.96-3.77-13.73 0-3.51 3.5-3.62 9.04-.6 12.84-2.99 1.89-5.86 3.91-8.64 6.08-3.65-1.93-8.2-1.5-11.26 1.58-2.9 2.89-3.53 7.18-1.98 10.73-2.47 2.71-4.78 5.53-6.96 8.48-3.69-2.12-8.4-1.77-11.55 1.38zm159.06 71.47c-.47 3.01-1.08 5.95-1.97 8.79-4.67-1.83-9.95.02-12.26 4.63-2.2 4.59-.48 9.88 3.83 12.48-1.71 2.47-3.62 4.78-5.66 6.97-3.46-3.64-9.05-4.2-12.97-1.08-3.94 3.21-4.72 8.71-1.92 12.91a62.933 62.933 0 01-8.16 3.89c-1.47-4.67-6.24-7.65-11.19-6.55-4.95 1.1-8.03 5.77-7.37 10.7-1.42.1-2.86.22-4.32.22-1.6 0-3.15-.13-4.72-.23.67-4.94-2.32-9.7-7.27-10.79-4.95-1.09-9.7 1.78-11.26 6.52-2.8-1.12-5.5-2.45-8.09-3.94 2.71-4.13 2.03-9.71-1.91-12.81-3.93-3.2-9.51-2.65-12.9.93-2.05-2.21-3.96-4.54-5.68-7.04 4.27-2.55 6.08-7.88 3.88-12.45a9.42 9.42 0 00-12.13-4.64c-.88-2.86-1.49-5.84-1.95-8.86 4.92-.44 8.87-4.48 8.87-9.5v-.69c.09-5.04-3.84-9.07-8.76-9.5.49-3 1.13-5.94 2.04-8.78 1.14.47 2.33.79 3.53.79 3.58 0 7.05-2.03 8.69-5.42 2.2-4.58.49-9.93-3.71-12.46 1.74-2.48 3.66-4.81 5.74-7.01 1.89 1.99 4.35 3.23 6.97 3.23 2.03 0 4.16-.68 5.89-2.13 4.04-3.12 4.74-8.71 2.1-12.83 2.59-1.45 5.3-2.7 8.09-3.79 1.27 4.08 4.99 6.85 9.15 6.85.68 0 1.36-.1 2.03-.19 4.95-1.1 8.04-5.86 7.45-10.72 1.32-.09 2.62-.2 3.96-.2 1.69 0 3.36.13 5.01.25-.66 4.93 2.33 9.67 7.27 10.86.77.11 1.45.2 2.22.2 4.08 0 7.73-2.69 9.05-6.68 2.81 1.13 5.49 2.48 8.08 4-2.8 4.13-2.12 9.72 1.82 12.83 1.83 1.45 3.96 2.22 6.09 2.22 2.53 0 4.99-1.16 6.87-3.06 2.02 2.21 3.94 4.53 5.63 7.03-4.29 2.54-6.1 7.88-3.99 12.46 1.64 3.48 5.12 5.51 8.8 5.51 1.11 0 2.27-.26 3.36-.71.84 2.84 1.45 5.79 1.89 8.78-4.95.32-8.92 4.37-8.92 9.44-.1 5.04 3.86 9.1 8.81 9.58zm19.58-19.55c-4.81-40.76-39.53-72.52-81.57-72.52s-76.75 31.75-81.57 72.52h-4.89c4.83-43.44 41.73-77.35 86.45-77.35s81.61 33.91 86.45 77.35h-4.87zm24.24-1.2c-1.01-9.74-3.4-19.03-6.84-27.81h35.02c-3.57 13.71-14.4 24.44-28.18 27.81zm29.56-47.15h-46.33a107.486 107.486 0 00-31.02-31.02V552.99l29.01 15.95v64.38c0 28.69 20.95 52.52 48.34 57.14v29.89zm0-49.57c-16.67-4.29-29.01-19.46-29.01-37.45v-59.2c16.67 4.29 29.01 19.46 29.01 37.45v59.2z"/></g><path d="M444.76 430.3H299.73c-5.35 0-9.67 4.32-9.67 9.67v96.69c0 5.35 4.32 9.67 9.67 9.67h145.03c5.35 0 9.67-4.32 9.67-9.67v-96.69c0-5.35-4.32-9.67-9.67-9.67zm-9.67 96.69h-63.67l36.66-36.67c3.78-3.78 3.78-9.89 0-13.67s-9.89-3.78-13.67 0l-49.02 49.03c-.39.39-.57.88-.87 1.31h-35.13v-77.35h68.51l-32.52 32.53a9.657 9.657 0 000 13.67c1.89 1.89 4.36 2.83 6.84 2.83s4.95-.95 6.84-2.83l46.19-46.2h29.84v77.35z" fill="#09a"/><path d="M773.16 166.3c.24.32.57.57.89.81-.57-.89-1.13-1.78-1.54-2.67.24.57.49 1.22.65 1.86zm212.96-14.01c-.32-.65-.73-1.3-1.22-1.94.32.65.57 1.3.81 1.94h.41zm-173.19 0c-.32-.65-.73-1.3-1.22-1.94.32.65.57 1.3.81 1.94h.41z" fill="#2d2d2d"/><path d="M993.66 56.78H763.28c-26.89 0-48.68 21.79-48.68 48.68V249c0 26.89 21.79 48.68 48.68 48.68h1.94l-6.72 50.47 69.58-50.47h165.58c26.89 0 48.68-21.79 48.68-48.68V105.47c0-26.89-21.79-48.68-48.68-48.68zM814.8 213.69c-5.51 4.13-12.88 6.16-21.95 6.16s-16.53-2.19-22.92-6.64c-6.4-4.46-9.48-11.02-9.32-19.85l.08-.32h16.12c0 4.86 1.46 8.51 4.29 10.77 2.92 2.35 6.8 3.48 11.66 3.48 4.46 0 7.78-.89 10.13-2.75s3.48-4.37 3.48-7.45-1.13-5.75-3.32-7.7-6.08-3.73-11.66-5.43c-9.56-2.92-16.77-6.24-21.71-10.21-4.94-3.89-7.45-9.23-7.45-15.96s2.75-12.31 8.34-16.61c5.59-4.29 12.64-6.48 21.3-6.48 9.15 0 16.53 2.35 22.11 6.97 5.59 4.62 8.26 10.69 8.1 18.15l-.08.32h-16.04c0-4.13-1.22-7.29-3.73-9.48s-5.99-3.32-10.53-3.32c-4.05 0-7.29.97-9.48 2.92-2.27 1.94-3.32 4.46-3.32 7.53 0 2.84 1.22 5.1 3.65 6.89s6.64 3.73 12.56 5.67c9.07 2.59 16.04 5.91 20.82 10.13 4.78 4.13 7.13 9.64 7.13 16.36.08 7.13-2.75 12.72-8.26 16.85zm106.52 4.94h-16.61v-56.46l-.32-.08-20.41 56.54h-11.26l-20.49-56.7-.32.08v56.62H835.3v-82.71h21.79l21.06 61h.32l21.22-61h21.63v82.71zm66.67-4.94c-5.51 4.13-12.88 6.16-21.95 6.16s-16.53-2.19-22.92-6.64c-6.4-4.46-9.48-11.02-9.32-19.85l.08-.32H950c0 4.86 1.46 8.51 4.29 10.77 2.92 2.35 6.8 3.48 11.66 3.48 4.46 0 7.78-.89 10.13-2.75 2.35-1.86 3.48-4.37 3.48-7.45s-1.13-5.75-3.32-7.7c-2.19-1.94-6.08-3.73-11.66-5.43-9.56-2.92-16.77-6.24-21.71-10.21-4.94-3.89-7.45-9.23-7.45-15.96s2.75-12.31 8.34-16.61c5.59-4.29 12.64-6.48 21.3-6.48 9.15 0 16.53 2.35 22.11 6.97 5.59 4.62 8.26 10.69 8.1 18.15l-.08.32h-16.04c0-4.13-1.22-7.29-3.73-9.48-2.51-2.19-5.99-3.32-10.53-3.32-4.05 0-7.29.97-9.48 2.92-2.27 1.94-3.32 4.46-3.32 7.53 0 2.84 1.22 5.1 3.65 6.89s6.64 3.73 12.56 5.67c9.07 2.59 16.04 5.91 20.82 10.13 4.78 4.13 7.13 9.64 7.13 16.36 0 7.13-2.75 12.72-8.26 16.85z" fill="#09a"/><path d="M1070.94 0H840.56c-26.89 0-48.68 21.79-48.68 48.68V49h201.78c31.19 0 56.54 25.35 56.54 56.54v143.54c0 7.37-1.46 14.42-4.05 20.9l29.57 21.47-6.72-50.47h1.94c26.89 0 48.68-21.79 48.68-48.68V48.68c0-26.89-21.79-48.68-48.68-48.68z" fill="#666"/></svg>